<svg id="Capa_1" data-name="Capa 1" xmlns="http://www.w3.org/2000/svg" viewBox="0 0 164.16 167.98"><defs><style>.cls-1{fill:#bf1917;}.cls-2,.cls-3{fill:#fff;}.cls-2{stroke:#fff;stroke-miterlimit:10;}.cls-3{font-size:18.01px;font-family:Coves-Light, Coves;font-weight:300;}.cls-4{letter-spacing:0.04em;}.cls-5{letter-spacing:0.03em;}.cls-6{letter-spacing:0.03em;}.cls-7{letter-spacing:0.03em;}.cls-8{letter-spacing:-0.02em;}.cls-9{letter-spacing:0.03em;}</style></defs><title>leo</title><circle class="cls-1" cx="79.25" cy="86.33" r="70.75"/><path class="cls-2" d="M84.15,84.28a5.47,5.47,0,0,1-3.07-.94,4.45,4.45,0,0,0-4.55,0,5.77,5.77,0,0,1-3,.81,5.46,5.46,0,0,1-4.87-2.84,4.14,4.14,0,0,0-4-2.28H64.4a5.32,5.32,0,0,1-3.89-1.68,5.42,5.42,0,0,1-1.47-4,4.12,4.12,0,0,0-2.27-4A5.27,5.27,0,0,1,54,66a5.52,5.52,0,0,1,.75-4.46,4.33,4.33,0,0,0,0-4.56,5.81,5.81,0,0,1-.6-4.5,5.33,5.33,0,0,1,2.62-3.32,4.18,4.18,0,0,0,2.29-4,5.29,5.29,0,0,1,1.46-4,5.36,5.36,0,0,1,4.21-1.67h.34a4.14,4.14,0,0,0,3.64-2.28,5.56,5.56,0,0,1,4.88-2.92,5.34,5.34,0,0,1,3,.9,4.46,4.46,0,0,0,4.56,0,5.72,5.72,0,0,1,3-.82,5.48,5.48,0,0,1,4.87,2.83,4.13,4.13,0,0,0,4,2.29h.32a5.27,5.27,0,0,1,3.9,1.68,5.39,5.39,0,0,1,1.47,4,4.15,4.15,0,0,0,2.27,4,5.25,5.25,0,0,1,2.77,3.4,5.46,5.46,0,0,1-.76,4.45,4.37,4.37,0,0,0,0,4.57,5.78,5.78,0,0,1,.6,4.49,5.27,5.27,0,0,1-2.62,3.32,4.12,4.12,0,0,0-2.28,4,5.38,5.38,0,0,1-5.67,5.68h-.33a4.14,4.14,0,0,0-3.66,2.28A5.31,5.31,0,0,1,84.15,84.28Zm-5.33-2.76a5.59,5.59,0,0,1,2.9.82,4.42,4.42,0,0,0,2.43.75,4.13,4.13,0,0,0,3.72-2.3A5.32,5.32,0,0,1,93,77.86h.23a4.22,4.22,0,0,0,3-1.31,4.17,4.17,0,0,0,1.13-3.11,5.32,5.32,0,0,1,2.92-5.12,4.07,4.07,0,0,0,2-2.58,4.57,4.57,0,0,0-.47-3.56,5.54,5.54,0,0,1,0-5.82,4.28,4.28,0,0,0,.61-3.51,4,4,0,0,0-2.15-2.63A5.31,5.31,0,0,1,97.4,45.1,4.2,4.2,0,0,0,96.26,42,4.13,4.13,0,0,0,93,40.69a2.55,2.55,0,0,1-.4,0,5.33,5.33,0,0,1-4.71-2.94,4.28,4.28,0,0,0-3.81-2.19,4.56,4.56,0,0,0-2.34.65,5.66,5.66,0,0,1-5.81,0,4.13,4.13,0,0,0-2.33-.72,4.35,4.35,0,0,0-3.82,2.27,5.28,5.28,0,0,1-5.13,2.91h-.22a4.22,4.22,0,0,0-3,1.31,4.16,4.16,0,0,0-1.14,3.11,5.3,5.3,0,0,1-2.92,5.12,4.14,4.14,0,0,0-2,2.58,4.6,4.6,0,0,0,.47,3.57,5.53,5.53,0,0,1,0,5.81,4.32,4.32,0,0,0-.61,3.51,4.09,4.09,0,0,0,2.16,2.63,5.32,5.32,0,0,1,2.92,5.14,4.24,4.24,0,0,0,1.15,3.1,4.1,4.1,0,0,0,3.27,1.29H65a5.33,5.33,0,0,1,4.72,2.94A4.29,4.29,0,0,0,73.58,83a4.57,4.57,0,0,0,2.34-.64A5.56,5.56,0,0,1,78.82,81.52Z"/><path class="cls-2" d="M78.82,77A17.68,17.68,0,1,1,96.49,59.28,17.7,17.7,0,0,1,78.82,77Zm0-34.17A16.49,16.49,0,1,0,95.3,59.28,16.51,16.51,0,0,0,78.82,42.79Z"/><path class="cls-2" d="M84.83,69.62h-.65a.6.6,0,0,1-.3-.07l-5.07-2.93-5,2.73a1.1,1.1,0,0,1-1.42-.08,1,1,0,0,1-.32-1.22l.92-6L68.92,58c-.23-.11-.45-.38-.45-1a1,1,0,0,1,.53-.8,1.5,1.5,0,0,0,.13-.11.62.62,0,0,1,.33-.17L75.17,55l2.63-5.42a.64.64,0,0,1,.11-.16,1.34,1.34,0,0,1,.91-.5,1.15,1.15,0,0,1,1.05.74L82.46,55l5.68.91a1.11,1.11,0,0,1,1,1.09,1.45,1.45,0,0,1-.35,1.07l-4.16,4.17.92,6a1.56,1.56,0,0,1-.31,1.15A.58.58,0,0,1,84.83,69.62Zm-.5-1.19h.06v-.05l-1-6.25a.59.59,0,0,1,.17-.51L88,57.23s0-.08,0-.14l-6-1a.59.59,0,0,1-.44-.32l-2.71-5.59L76.11,55.8a.59.59,0,0,1-.44.33l-5.85.94-.09.08L74,61.46a.61.61,0,0,1,.16.51l-1,6.34h0l5.3-2.89a.6.6,0,0,1,.58,0Z"/><path class="cls-2" d="M66.52,106.78h0a.59.59,0,0,1-.53-.36l-3.52-8.63-9,2.4a.59.59,0,0,1-.61-.19.61.61,0,0,1-.09-.63l.07-.16,10.47-21a.59.59,0,0,1,.6-.32,3.84,3.84,0,0,0,.76,0H65a5.33,5.33,0,0,1,4.72,2.94A4.29,4.29,0,0,0,73.58,83h0a4.57,4.57,0,0,0,2.34-.64,5.51,5.51,0,0,1,2.52-.81.6.6,0,0,1,.58.86l-12,24A.58.58,0,0,1,66.52,106.78ZM62.8,96.48a.59.59,0,0,1,.55.37l3.22,7.89,10.84-21.8a4.43,4.43,0,0,0-.88.42,5.77,5.77,0,0,1-3,.81h0a5.46,5.46,0,0,1-4.87-2.84,4.14,4.14,0,0,0-4-2.28h-.56L54.41,98.69l8.24-2.19A.39.39,0,0,1,62.8,96.48Z"/><path class="cls-2" d="M91.11,106.78a.59.59,0,0,1-.53-.34l-12-24a.57.57,0,0,1,0-.59.62.62,0,0,1,.53-.27,5.51,5.51,0,0,1,2.52.81,4.42,4.42,0,0,0,2.43.75,4.13,4.13,0,0,0,3.72-2.3A5.32,5.32,0,0,1,93,77.86a3.74,3.74,0,0,0,.74,0,.6.6,0,0,1,.61.33l10.48,21.06a.64.64,0,0,1,.12.38.58.58,0,0,1-.6.59l-.16,0-9-2.4-3.53,8.63a.57.57,0,0,1-.53.36ZM80.23,82.94l10.83,21.8,3.22-7.89A.6.6,0,0,1,95,96.5l8.24,2.19L93.46,79.06h-.87a4.14,4.14,0,0,0-3.66,2.28,5.31,5.31,0,0,1-4.78,3,5.47,5.47,0,0,1-3.07-.94A4.73,4.73,0,0,0,80.23,82.94Z"/><text class="cls-3" transform="translate(62.29 124.14)"><tspan class="cls-4">P</tspan><tspan x="10.76" y="0">l</tspan><tspan class="cls-5" x="13.91" y="0">a</tspan><tspan x="21.24" y="0">n </tspan><tspan x="-15.02" y="12.81">c</tspan><tspan class="cls-6" x="-8.06" y="12.81">o</tspan><tspan class="cls-7" x="0.95" y="12.81">m</tspan><tspan x="14.96" y="12.81">pl</tspan><tspan class="cls-8" x="27.49" y="12.81">e</tspan><tspan class="cls-9" x="35.64" y="12.81">t</tspan><tspan x="40.44" y="12.81">o</tspan></text></svg>